<svg xmlns="http://www.w3.org/2000/svg" xmlns:svg="http://www.w3.org/2000/svg" xmlns:xlink="http://www.w3.org/1999/xlink" id="svg2" width="7086.614" height="2622.047" version="1.1"><defs id="defs4"><linearGradient id="linearGradient3750"><stop style="stop-color:#17273b;stop-opacity:1" id="stop3752" offset="0"/><stop id="stop4356" offset=".417" style="stop-color:#008cd4;stop-opacity:.78039217"/><stop style="stop-color:#6eb5de;stop-opacity:.69803923" id="stop4358" offset=".878"/><stop style="stop-color:#88bfe5;stop-opacity:.61960787" id="stop3754" offset="1"/></linearGradient><linearGradient id="linearGradient3284"><stop style="stop-color:#fff;stop-opacity:1" id="stop3286" offset="0"/><stop style="stop-color:#fff;stop-opacity:.7518248" id="stop3288" offset="1"/></linearGradient><linearGradient id="linearGradient3278"><stop id="stop3280" offset="0" style="stop-color:#33bff7;stop-opacity:.38039216"/><stop id="stop3282" offset="1" style="stop-color:#2d446b;stop-opacity:1"/></linearGradient><linearGradient id="linearGradient3272"><stop id="stop3274" offset="0" style="stop-color:#2596f6;stop-opacity:.38039216"/><stop id="stop3276" offset="1" style="stop-color:#2d446b;stop-opacity:1"/></linearGradient><linearGradient id="linearGradient3266"><stop id="stop3268" offset="0" style="stop-color:#189fff;stop-opacity:.38039216"/><stop id="stop3270" offset="1" style="stop-color:#010b2b;stop-opacity:1"/></linearGradient><linearGradient id="linearGradient3244"><stop id="stop3246" offset="0" style="stop-color:#419bff;stop-opacity:1"/><stop id="stop3248" offset="1" style="stop-color:#002359;stop-opacity:1"/></linearGradient><linearGradient id="linearGradient3159"><stop style="stop-color:#33bff7;stop-opacity:.38039216" id="stop3161" offset="0"/><stop style="stop-color:#2d446b;stop-opacity:1" id="stop3163" offset="1"/></linearGradient><radialGradient id="radialGradient3256" cx="344.735" cy="77.264" r="196.157" fx="344.735" fy="77.264" gradientTransform="matrix(-1.39796,-0.05336032,0.08355111,-2.1889079,820.20461,272.08319)" gradientUnits="userSpaceOnUse" xlink:href="#linearGradient3244"/><radialGradient id="radialGradient3264" cx="140.336" cy="300.275" r="206.157" fx="140.336" fy="300.275" gradientTransform="matrix(0.6771172,-0.6830119,1.1802789,1.1700925,-161.83993,77.639162)" gradientUnits="userSpaceOnUse" xlink:href="#linearGradient3159"/><radialGradient id="radialGradient3290" cx="267.504" cy="337.127" r="77.845" fx="267.504" fy="337.127" gradientTransform="matrix(1,0,0,0.7430849,0,86.613009)" gradientUnits="userSpaceOnUse" xlink:href="#linearGradient3284"/><linearGradient id="linearGradient3211"><stop id="stop3213" offset="0" style="stop-color:#00a0ff;stop-opacity:1"/><stop id="stop3215" offset="1" style="stop-color:#0025ff;stop-opacity:1"/></linearGradient><filter id="filter3406" color-interpolation-filters="sRGB"><feGaussianBlur id="feGaussianBlur3408" stdDeviation="13.396"/></filter><radialGradient id="radialGradient3416" cx="119.964" cy="229.29" r="203.195" fx="119.964" fy="229.29" gradientTransform="matrix(0.7210805,2.1168143,-1.4722239,0.5015047,347.53034,-320.94088)" gradientUnits="userSpaceOnUse" xlink:href="#linearGradient3284"/><radialGradient id="radialGradient3423" cx="351.155" cy="372.063" r="163.571" fx="351.155" fy="372.063" gradientTransform="matrix(9.0785365,-9.2630105,16.085822,15.212343,-6979.1531,-2584.4202)" gradientUnits="userSpaceOnUse" xlink:href="#linearGradient3266"/><radialGradient id="radialGradient3734" cx="119.964" cy="229.29" r="203.195" fx="119.964" fy="229.29" gradientTransform="matrix(0.7210805,2.1168143,-1.4722239,0.5015047,347.53034,-320.94088)" gradientUnits="userSpaceOnUse" xlink:href="#linearGradient3284"/><radialGradient id="radialGradient3736" cx="119.964" cy="229.29" r="203.195" fx="119.964" fy="229.29" gradientTransform="matrix(0.7210805,2.1168143,-1.4722239,0.5015047,347.53034,-320.94088)" gradientUnits="userSpaceOnUse" xlink:href="#linearGradient3284"/><radialGradient id="radialGradient3758" cx="390.697" cy="258.924" r="32.031" fx="390.697" fy="258.924" gradientTransform="matrix(4.0292425,-5.5974184,5.1695404,3.721239,-2510.9809,1613.1551)" gradientUnits="userSpaceOnUse" xlink:href="#linearGradient3750"/><radialGradient id="radialGradient3760" cx="59.047" cy="248.227" r="197.156" fx="59.047" fy="248.227" gradientTransform="matrix(1.7105919,-0.04370519,0.03334715,1.3051856,-58.593126,-250.18318)" gradientUnits="userSpaceOnUse" xlink:href="#linearGradient3750"/><radialGradient id="radialGradient3762" cx="192.64" cy="282.404" r="133.094" fx="192.64" fy="282.404" gradientTransform="matrix(1.0081228,0.4493093,-1.0529321,2.3624813,273.13721,-455.12138)" gradientUnits="userSpaceOnUse" xlink:href="#linearGradient3750"/><radialGradient id="radialGradient4344" cx="24" cy="280.454" r="65.063" fx="24" fy="280.454" gradientTransform="matrix(5.7478532,-0.5889281,0.4834745,4.7186431,-260.98332,-919.446)" gradientUnits="userSpaceOnUse" xlink:href="#linearGradient3750"/><linearGradient id="linearGradient4354" x1="-125.596" x2="-5.288" y1="-100.477" y2="-100.477" gradientUnits="userSpaceOnUse" xlink:href="#linearGradient3750"/></defs><metadata id="metadata7"/><g id="layer4" transform="translate(-39.157291,2258.4378)" style="display:none"><rect style="opacity:.87000002;fill:#59f;fill-opacity:1;fill-rule:evenodd;stroke:none;stroke-width:60;marker:none;visibility:visible;display:inline;overflow:visible;enable-background:accumulate" id="rect3241" width="330" height="313.5" x="39" y="103.862"/></g><g id="layer1" transform="translate(-39.157291,2258.4378)" style="display:inline"><rect style="fill:#2e2e2e;fill-opacity:1;stroke:none" id="rect3834" width="7229.629" height="2725.701" x="37.157" y="-2261.142"/><rect style="fill:#fff;fill-opacity:1;stroke:#fff;stroke-width:155.6656189;stroke-linecap:round;stroke-linejoin:miter;stroke-miterlimit:4;stroke-opacity:1;stroke-dasharray:none" id="rect3836" width="2380.248" height="2290.577" x="507.665" y="-2114.552"/><rect style="fill:url(#radialGradient3423);fill-opacity:1;fill-rule:nonzero;stroke:none" id="rect2383" width="2558.925" height="2445.699" x="407.126" y="-2192.653"/><path style="opacity:.09583333;fill:#fff;fill-opacity:1;stroke:none" id="path3221" d="m 413.86349,-2192.5867 c -15.25265,33.2522 -2.32827,78.5617 -6.30947,116.6372 1.72096,380.4493 3.44192,760.8985 5.16287,1141.34766 93.88235,82.98568 229.27384,70.38365 345.4922,86.49033 423.97831,27.2898 850.31151,28.61862 1272.94371,-19.4116 269.6865,-27.22552 539.3778,-69.20434 799.6418,-145.93839 66.2578,-22.2482 149.4887,-73.1004 135.2925,-153.3025 0,-341.9409 0,-683.8819 0,-1025.8227 -850.7413,0 -1701.4825,0 -2552.22361,0 z"/><g style="opacity:.5;fill:#000;fill-opacity:1;filter:url(#filter3406)" id="g3394" transform="matrix(2.6849003,-2.6961195,2.6961195,2.6849003,536.88627,-838.56295)"><path style="fill:#000;fill-opacity:1;fill-rule:evenodd;stroke:none" id="path3396" d="M 412.75,98.59375 C 396.19379,98.835333 382.96319,112.44354 383.1875,129 c 0,0 -10e-6,87.25107 0,196.3125 0,23.30736 -12.11655,39.13192 -38.21875,53.46875 -26.1022,14.33683 -64.97276,22.875 -103.875,22.875 -38.90224,0 -77.7728,-8.53817 -103.875,-22.875 C 111.11655,364.44442 99,348.61986 99,325.3125 c 0,-54.37333 0.441249,-103.35555 0.65625,-138.875 0.1075,-17.75973 0.177008,-32.11577 0.09375,-42.34375 -0.04163,-5.11399 -0.129499,-9.10767 -0.28125,-12.46875 -0.07588,-1.68054 -0.136902,-3.05581 -0.40625,-5.25 -0.134674,-1.09709 -0.168072,-2.2122 -1,-5.1875 C 97.646536,119.69985 97.275733,117.79087 94.875,113.75 92.474267,109.70913 84.912085,98.999943 69,99 59.653467,98.879464 50.78473,103.12192 45.013008,110.47443 39.241286,117.82694 37.226064,127.44941 39.5625,136.5 c 0.06318,2.03091 0.15684,4.32729 0.1875,8.09375 0.07765,9.5394 0.0133,23.81477 -0.09375,41.5 C 39.442151,221.46421 39,270.62442 39,325.3125 c -10e-7,47.58256 30.913445,84.95437 69.34375,106.0625 38.43031,21.10813 85.6089,30.28125 132.75,30.28125 47.1411,0 94.31969,-9.17312 132.75,-30.28125 38.43031,-21.10813 69.34375,-58.47994 69.34375,-106.0625 -10e-6,-109.06142 0,-196.3125 0,-196.3125 0.10978,-8.10283 -3.06279,-15.9055 -8.79582,-21.63265 -5.73304,-5.72715 -13.53896,-8.891699 -21.64168,-8.7736 l 0,0 z"/><path style="fill:#000;fill-opacity:1;fill-rule:evenodd;stroke:none" id="path3398" d="M 239.5625,99.5 C 223.00629,99.741583 209.77569,113.34979 210,129.90625 L 210,350 c -0.15301,10.81908 5.53126,20.88244 14.87619,26.33663 9.34492,5.45419 20.9027,5.45419 30.24762,0 C 264.46874,370.88244 270.15301,360.81908 270,350 l 0,-220.09375 c 0.10978,-8.10283 -3.06279,-15.9055 -8.79582,-21.63265 -5.73304,-5.72715 -13.53896,-8.891699 -21.64168,-8.7736 l 0,0 z"/><path style="fill:#000;fill-opacity:1;stroke-width:60;stroke-linecap:round;stroke-linejoin:round;stroke-miterlimit:4;stroke-dasharray:none" id="path3400" d="M 100,40 C 100,56.568542 86.568542,70 70,70 53.431458,70 40,56.568542 40,40 40,23.431458 53.431458,10 70,10 c 16.568542,0 30,13.431458 30,30 z" transform="translate(0,-10)"/><path id="path3402" d="M 100,40 C 100,56.568542 86.568542,70 70,70 53.431458,70 40,56.568542 40,40 40,23.431458 53.431458,10 70,10 c 16.568542,0 30,13.431458 30,30 z" transform="translate(170,-10)" style="fill:#000;fill-opacity:1;stroke-width:60;stroke-linecap:round;stroke-linejoin:round;stroke-miterlimit:4;stroke-dasharray:none"/><path style="fill:#000;fill-opacity:1;stroke-width:60;stroke-linecap:round;stroke-linejoin:round;stroke-miterlimit:4;stroke-dasharray:none" id="path3404" d="M 100,40 C 100,56.568542 86.568542,70 70,70 53.431458,70 40,56.568542 40,40 40,23.431458 53.431458,10 70,10 c 16.568542,0 30,13.431458 30,30 z" transform="translate(345,-10)"/></g><text style="font-size:110.96224976px;font-style:normal;font-variant:normal;font-weight:400;font-stretch:normal;text-align:start;line-height:125%;letter-spacing:0;word-spacing:0;text-anchor:start;fill:#3a8ecd;fill-opacity:1;stroke:none;font-family:Union;-inkscape-font-specification:Union" id="text3058" x="3376.415" y="-1172.405" xml:space="preserve"><tspan id="tspan3060" x="3376.415" y="-1172.405" style="font-size:1141.3260498px;font-weight:700;fill:#3a8ecd;fill-opacity:1;-inkscape-font-specification:Union Bold">i3</tspan></text><text style="font-size:110.96224976px;font-style:normal;font-variant:normal;font-weight:400;font-stretch:normal;text-align:start;line-height:125%;letter-spacing:0;word-spacing:0;text-anchor:start;fill:#fff;fill-opacity:1;stroke:none;font-family:Union;-inkscape-font-specification:Union" id="text3062" x="3400.173" y="-565.842" xml:space="preserve"><tspan id="tspan3064" x="3400.173" y="-565.842" style="font-size:570.6630249px;fill:#fff;fill-opacity:1">improved</tspan><tspan style="font-size:570.6630249px;fill:#fff;fill-opacity:1" id="tspan3063" x="3400.173" y="147.487">tiling wm</tspan></text></g><g id="layer2" transform="translate(-39.157291,2258.4378)" style="display:none"><rect id="rect3247" width="322.857" height="308.571" x="42.857" y="106.648" style="fill:none;stroke:#000;stroke-width:1;stroke-linecap:round;stroke-linejoin:miter;stroke-miterlimit:4;stroke-opacity:1;stroke-dasharray:none;stroke-dashoffset:0"/><rect style="fill:none;stroke:#000;stroke-width:1;stroke-linecap:round;stroke-linejoin:miter;stroke-miterlimit:4;stroke-opacity:1;stroke-dasharray:none;stroke-dashoffset:0" id="rect3253" width="212.077" height="98.217" x="42.851" y="218.038"/><rect style="fill:none;stroke:#000;stroke-width:1;stroke-linecap:round;stroke-linejoin:miter;stroke-miterlimit:4;stroke-opacity:1;stroke-dasharray:none;stroke-dashoffset:0" id="rect3257" width="110.753" height="70.944" x="254.941" y="274.262"/><rect id="rect3259" width="110.769" height="56.235" x="254.94" y="218.025" style="fill:none;stroke:#000;stroke-width:1;stroke-linecap:round;stroke-linejoin:miter;stroke-miterlimit:4;stroke-opacity:1;stroke-dasharray:none;stroke-dashoffset:0"/><rect id="rect3255" width="110.78" height="69.955" x="254.916" y="345.253" style="fill:none;stroke:#000;stroke-width:1;stroke-linecap:round;stroke-linejoin:miter;stroke-miterlimit:4;stroke-opacity:1;stroke-dasharray:none;stroke-dashoffset:0"/><rect style="fill:none;stroke:#000;stroke-width:1;stroke-linecap:round;stroke-linejoin:miter;stroke-miterlimit:4;stroke-opacity:1;stroke-dasharray:none;stroke-dashoffset:0" id="rect3249" width="106.876" height="111.692" x="42.85" y="106.321"/><rect id="rect3261" width="105.189" height="111.578" x="149.722" y="106.452" style="fill:none;stroke:#000;stroke-width:1;stroke-linecap:round;stroke-linejoin:miter;stroke-miterlimit:4;stroke-opacity:1;stroke-dasharray:none;stroke-dashoffset:0"/><rect style="fill:none;stroke:#000;stroke-width:1;stroke-linecap:round;stroke-linejoin:miter;stroke-miterlimit:4;stroke-opacity:1;stroke-dasharray:none;stroke-dashoffset:0" id="rect3263" width="110.786" height="111.572" x="254.916" y="106.455"/><rect id="rect3251" width="212.079" height="98.98" x="42.848" y="316.229" style="fill:none;stroke:#000;stroke-width:1;stroke-linecap:round;stroke-linejoin:miter;stroke-miterlimit:4;stroke-opacity:1;stroke-dasharray:none;stroke-dashoffset:0;display:inline"/></g><g id="layer5" transform="translate(-39.157291,2258.4378)" style="display:inline"><rect id="rect3244" width="2558.925" height="2445.699" x="407.126" y="-2192.653" style="fill:none;stroke:#000;stroke-width:7.92587519;stroke-linecap:round;stroke-linejoin:miter;stroke-miterlimit:4;stroke-opacity:1;stroke-dasharray:none;stroke-dashoffset:0;display:inline"/><rect style="fill:none;stroke:#000;stroke-width:7.92587519;stroke-linecap:round;stroke-linejoin:miter;stroke-miterlimit:4;stroke-opacity:1;stroke-dasharray:none;stroke-dashoffset:0;display:inline" id="rect3246" width="2558.925" height="2445.699" x="407.126" y="-2192.653"/><path style="fill:none;stroke:#000;stroke-width:7.92587519;stroke-linecap:round;stroke-linejoin:miter;stroke-miterlimit:4;stroke-opacity:1;stroke-dashoffset:0;display:inline" id="path73" d="m 1516.7488,-2192.653 0,2445.6988 0,-2445.6988 z"/><path id="path3254" d="m 1513.2638,-1393.8379 -1102.65249,0 1102.65249,0 z" style="fill:none;stroke:#000;stroke-width:7.92587519;stroke-linecap:round;stroke-linejoin:miter;stroke-miterlimit:4;stroke-opacity:1;stroke-dasharray:none;stroke-dashoffset:0;marker:none;visibility:visible;display:inline;overflow:visible;enable-background:accumulate"/><path style="fill:none;stroke:#000;stroke-width:7.92587519;stroke-linecap:round;stroke-linejoin:miter;stroke-miterlimit:4;stroke-opacity:1;stroke-dasharray:none;stroke-dashoffset:0;marker:none;visibility:visible;display:inline;overflow:visible;enable-background:accumulate" id="path3256" d="m 1513.2638,-553.69513 -1102.65249,0 1102.65249,0 z"/></g><g id="layer3" transform="translate(-39.157291,2258.4378)" style="display:inline"><path style="opacity:.87000002;color:#000;fill:#fff;fill-opacity:1;fill-rule:evenodd;stroke:none;stroke-width:60;marker:none;visibility:visible;display:inline;overflow:visible;enable-background:accumulate" id="path2405" d="m 1910.8996,-1686.6719 c -43.8006,45.2862 -42.6341,117.4941 2.6064,161.3419 0,0 235.2392,234.2605 529.282,527.07952 62.8393,62.57796 72.9725,137.7329 41.5446,246.60061 -31.428,108.86761 -112.7716,236.59139 -217.2204,341.47644 -104.4485,104.88515 -231.8323,186.76064 -340.5677,218.64229 -108.7357,31.88176 -183.9323,22.06207 -246.7717,-40.51589 -146.597,-145.98708 -277.4742,-278.68913 -372.6616,-374.63493 -47.5938,-47.97291 -86.1127,-86.70483 -113.9122,-113.94145 -13.8996,-13.61834 -24.903,-24.10409 -34.3723,-32.71913 -4.7346,-4.30745 -8.6064,-7.83547 -15.2454,-13.00042 -3.3194,-2.58251 -6.4155,-5.48637 -16.671,-11.23181 -5.1277,-2.87267 -11.2701,-6.9983 -28.6106,-11.375 -17.3403,-4.37678 -66.5173,-12.74127 -109.2395,30.15978 -25.41947,24.87572 -37.79297,60.17755 -33.46619,95.47948 4.32669,35.30205 24.85939,66.57063 55.53399,84.57122 5.6452,5.28257 12.088,11.19556 22.3251,21.22547 25.9279,25.40294 64.2432,63.90443 111.6373,111.67611 94.7881,95.54346 226.1427,228.72579 373.5883,375.557869 128.2883,127.754376 312.0468,144.747557 472.1383,97.808209 160.0916,-46.939459 311.4932,-149.509768 438.0623,-276.607698 126.5694,-127.09813 228.5073,-278.92621 274.7788,-439.21204 46.2715,-160.28596 28.5121,-343.97193 -99.7762,-471.72633 -294.0426,-292.819 -529.282,-527.0795 -529.282,-527.0795 -21.5513,-22.0513 -51.1063,-34.4471 -81.9399,-34.3669 -30.8338,0.079 -60.324,12.6292 -81.7604,34.7922 l 0,0 z"/><path style="opacity:.87000002;fill:#fff;fill-opacity:1;fill-rule:evenodd;stroke:none;display:inline" id="path3179" d="m 1448.3517,-1217.3044 c -43.8005,45.2861 -42.6341,117.494 2.6065,161.3418 l 593.3989,590.92975 c 28.7587,29.46065 71.1525,41.15432 110.9479,30.60322 39.7953,-10.551 70.8268,-41.71214 81.2117,-81.55118 10.3852,-39.83905 -1.4851,-82.18356 -31.0655,-110.81923 l -593.399,-590.92976 c -21.5515,-22.0513 -51.1064,-34.447 -81.9402,-34.367 -30.8336,0.079 -60.3238,12.6293 -81.7603,34.7924 l 0,0 z"/><path style="opacity:.87000002;color:#000;fill:#fff;fill-opacity:1;fill-rule:evenodd;stroke:none;stroke-width:124.98213196;marker:none;visibility:visible;display:inline;overflow:visible;enable-background:accumulate" id="path3181" d="m 100,40 a 30,30 0 1 1 -60,0 30,30 0 1 1 60,0 z" transform="matrix(2.6849003,-2.6961195,2.6961195,2.6849003,509.92508,-865.41186)"/><path id="path3183" d="m 100,40 a 30,30 0 1 1 -60,0 30,30 0 1 1 60,0 z" transform="matrix(2.6849003,-2.6961195,2.6961195,2.6849003,966.35812,-1323.7522)" style="opacity:.87000002;color:#000;fill:#fff;fill-opacity:1;fill-rule:evenodd;stroke:none;stroke-width:124.98213196;marker:none;visibility:visible;display:inline;overflow:visible;enable-background:accumulate"/><path style="opacity:.87000002;color:#000;fill:#fff;fill-opacity:1;fill-rule:evenodd;stroke:none;stroke-width:124.98213196;marker:none;visibility:visible;display:inline;overflow:visible;enable-background:accumulate" id="path3185" d="m 100,40 a 30,30 0 1 1 -60,0 30,30 0 1 1 60,0 z" transform="matrix(2.6849003,-2.6961195,2.6961195,2.6849003,1436.2157,-1795.5732)"/></g></svg>