<svg xmlns="http://www.w3.org/2000/svg" xmlns:svg="http://www.w3.org/2000/svg" xmlns:xlink="http://www.w3.org/1999/xlink" id="svg2" width="269.291" height="187.795" version="1.1"><defs id="defs4"><linearGradient id="linearGradient3750"><stop style="stop-color:#17273b;stop-opacity:1" id="stop3752" offset="0"/><stop id="stop4356" offset=".417" style="stop-color:#008cd4;stop-opacity:.78039217"/><stop style="stop-color:#6eb5de;stop-opacity:.69803923" id="stop4358" offset=".878"/><stop style="stop-color:#88bfe5;stop-opacity:.61960787" id="stop3754" offset="1"/></linearGradient><linearGradient id="linearGradient3284"><stop style="stop-color:#fff;stop-opacity:1" id="stop3286" offset="0"/><stop style="stop-color:#fff;stop-opacity:.7518248" id="stop3288" offset="1"/></linearGradient><linearGradient id="linearGradient3278"><stop id="stop3280" offset="0" style="stop-color:#33bff7;stop-opacity:.38039216"/><stop id="stop3282" offset="1" style="stop-color:#2d446b;stop-opacity:1"/></linearGradient><linearGradient id="linearGradient3272"><stop id="stop3274" offset="0" style="stop-color:#2596f6;stop-opacity:.38039216"/><stop id="stop3276" offset="1" style="stop-color:#2d446b;stop-opacity:1"/></linearGradient><linearGradient id="linearGradient3266"><stop id="stop3268" offset="0" style="stop-color:#189fff;stop-opacity:.38039216"/><stop id="stop3270" offset="1" style="stop-color:#010b2b;stop-opacity:1"/></linearGradient><linearGradient id="linearGradient3244"><stop id="stop3246" offset="0" style="stop-color:#419bff;stop-opacity:1"/><stop id="stop3248" offset="1" style="stop-color:#002359;stop-opacity:1"/></linearGradient><linearGradient id="linearGradient3159"><stop style="stop-color:#33bff7;stop-opacity:.38039216" id="stop3161" offset="0"/><stop style="stop-color:#2d446b;stop-opacity:1" id="stop3163" offset="1"/></linearGradient><radialGradient id="radialGradient3256" cx="344.735" cy="77.264" r="196.157" fx="344.735" fy="77.264" gradientTransform="matrix(-1.39796,-0.05336032,0.08355111,-2.1889079,820.20461,272.08319)" gradientUnits="userSpaceOnUse" xlink:href="#linearGradient3244"/><radialGradient id="radialGradient3264" cx="140.336" cy="300.275" r="206.157" fx="140.336" fy="300.275" gradientTransform="matrix(0.6771172,-0.6830119,1.1802789,1.1700925,-161.83993,77.639162)" gradientUnits="userSpaceOnUse" xlink:href="#linearGradient3159"/><radialGradient id="radialGradient3290" cx="267.504" cy="337.127" r="77.845" fx="267.504" fy="337.127" gradientTransform="matrix(1,0,0,0.7430849,0,86.613009)" gradientUnits="userSpaceOnUse" xlink:href="#linearGradient3284"/><linearGradient id="linearGradient3211"><stop id="stop3213" offset="0" style="stop-color:#00a0ff;stop-opacity:1"/><stop id="stop3215" offset="1" style="stop-color:#0025ff;stop-opacity:1"/></linearGradient><filter id="filter3406" color-interpolation-filters="sRGB"><feGaussianBlur id="feGaussianBlur3408" stdDeviation="13.396"/></filter><radialGradient id="radialGradient3416" cx="119.964" cy="229.29" r="203.195" fx="119.964" fy="229.29" gradientTransform="matrix(0.7210805,2.1168143,-1.4722239,0.5015047,347.53034,-320.94088)" gradientUnits="userSpaceOnUse" xlink:href="#linearGradient3284"/><radialGradient id="radialGradient3734" cx="119.964" cy="229.29" r="203.195" fx="119.964" fy="229.29" gradientTransform="matrix(0.7210805,2.1168143,-1.4722239,0.5015047,347.53034,-320.94088)" gradientUnits="userSpaceOnUse" xlink:href="#linearGradient3284"/><radialGradient id="radialGradient3736" cx="119.964" cy="229.29" r="203.195" fx="119.964" fy="229.29" gradientTransform="matrix(0.7210805,2.1168143,-1.4722239,0.5015047,347.53034,-320.94088)" gradientUnits="userSpaceOnUse" xlink:href="#linearGradient3284"/><radialGradient id="radialGradient3758" cx="390.697" cy="258.924" r="32.031" fx="390.697" fy="258.924" gradientTransform="matrix(4.0292425,-5.5974184,5.1695404,3.721239,-2510.9809,1613.1551)" gradientUnits="userSpaceOnUse" xlink:href="#linearGradient3750"/><radialGradient id="radialGradient3760" cx="59.047" cy="248.227" r="197.156" fx="59.047" fy="248.227" gradientTransform="matrix(1.7105919,-0.04370519,0.03334715,1.3051856,-58.593126,-250.18318)" gradientUnits="userSpaceOnUse" xlink:href="#linearGradient3750"/><radialGradient id="radialGradient3762" cx="192.64" cy="282.404" r="133.094" fx="192.64" fy="282.404" gradientTransform="matrix(1.0081228,0.4493093,-1.0529321,2.3624813,273.13721,-455.12138)" gradientUnits="userSpaceOnUse" xlink:href="#linearGradient3750"/><radialGradient id="radialGradient4344" cx="24" cy="280.454" r="65.063" fx="24" fy="280.454" gradientTransform="matrix(5.7478532,-0.5889281,0.4834745,4.7186431,-260.98332,-919.446)" gradientUnits="userSpaceOnUse" xlink:href="#linearGradient3750"/><linearGradient id="linearGradient4354" x1="-125.596" x2="-5.288" y1="-100.477" y2="-100.477" gradientUnits="userSpaceOnUse" xlink:href="#linearGradient3750"/><radialGradient id="radialGradient3721" cx="351.155" cy="372.063" r="163.571" fx="351.155" fy="372.063" gradientTransform="matrix(1.1454302,-1.1687051,2.0295327,1.9193266,-924.0626,56.219022)" gradientUnits="userSpaceOnUse" xlink:href="#linearGradient3266"/><radialGradient id="radialGradient3303" cx="351.155" cy="372.063" r="163.571" fx="351.155" fy="372.063" gradientTransform="matrix(0.54985655,-0.5425676,0.97426436,0.89104123,-423.22152,225.74786)" gradientUnits="userSpaceOnUse" xlink:href="#linearGradient3266"/></defs><metadata id="metadata7"/><g id="layer4" transform="translate(-7.8571396,-226.42406)" style="display:none"><rect style="opacity:.87000002;fill:#59f;fill-opacity:1;fill-rule:evenodd;stroke:none;stroke-width:60;marker:none;visibility:visible;display:inline;overflow:visible;enable-background:accumulate" id="rect3241" width="330" height="313.5" x="39" y="103.862"/></g><g id="layer2" transform="translate(-7.8571396,-226.42406)" style="display:none"><rect id="rect3247" width="322.857" height="308.571" x="42.857" y="106.648" style="fill:none;stroke:#000;stroke-width:1;stroke-linecap:round;stroke-linejoin:miter;stroke-miterlimit:4;stroke-opacity:1;stroke-dasharray:none;stroke-dashoffset:0"/><rect style="fill:none;stroke:#000;stroke-width:1;stroke-linecap:round;stroke-linejoin:miter;stroke-miterlimit:4;stroke-opacity:1;stroke-dasharray:none;stroke-dashoffset:0" id="rect3253" width="212.077" height="98.217" x="42.851" y="218.038"/><rect style="fill:none;stroke:#000;stroke-width:1;stroke-linecap:round;stroke-linejoin:miter;stroke-miterlimit:4;stroke-opacity:1;stroke-dasharray:none;stroke-dashoffset:0" id="rect3257" width="110.753" height="70.944" x="254.941" y="274.262"/><rect id="rect3259" width="110.769" height="56.235" x="254.94" y="218.025" style="fill:none;stroke:#000;stroke-width:1;stroke-linecap:round;stroke-linejoin:miter;stroke-miterlimit:4;stroke-opacity:1;stroke-dasharray:none;stroke-dashoffset:0"/><rect id="rect3255" width="110.78" height="69.955" x="254.916" y="345.253" style="fill:none;stroke:#000;stroke-width:1;stroke-linecap:round;stroke-linejoin:miter;stroke-miterlimit:4;stroke-opacity:1;stroke-dasharray:none;stroke-dashoffset:0"/><rect style="fill:none;stroke:#000;stroke-width:1;stroke-linecap:round;stroke-linejoin:miter;stroke-miterlimit:4;stroke-opacity:1;stroke-dasharray:none;stroke-dashoffset:0" id="rect3249" width="106.876" height="111.692" x="42.85" y="106.321"/><rect id="rect3261" width="105.189" height="111.578" x="149.722" y="106.452" style="fill:none;stroke:#000;stroke-width:1;stroke-linecap:round;stroke-linejoin:miter;stroke-miterlimit:4;stroke-opacity:1;stroke-dasharray:none;stroke-dashoffset:0"/><rect style="fill:none;stroke:#000;stroke-width:1;stroke-linecap:round;stroke-linejoin:miter;stroke-miterlimit:4;stroke-opacity:1;stroke-dasharray:none;stroke-dashoffset:0" id="rect3263" width="110.786" height="111.572" x="254.916" y="106.455"/><rect id="rect3251" width="212.079" height="98.98" x="42.848" y="316.229" style="fill:none;stroke:#000;stroke-width:1;stroke-linecap:round;stroke-linejoin:miter;stroke-miterlimit:4;stroke-opacity:1;stroke-dasharray:none;stroke-dashoffset:0;display:inline"/></g><g id="layer3" transform="translate(-7.8571396,-226.42406)" style="display:inline"><rect style="fill:#000;fill-opacity:1;stroke:none" id="rect4331" width="300.33" height="228.874" x="-15.043" y="-28.722" transform="translate(7.8571396,226.42406)"/><text style="font-size:11.90824985999999974px;font-style:normal;font-weight:400;fill:#0b5bb4;fill-opacity:1;stroke:none;display:inline;font-family:Bitstream Vera Sans" id="text2939" x="191.964" y="287.088" transform="scale(1.0168712,0.98340872)" xml:space="preserve"><tspan style="font-size:48px;font-style:normal;font-variant:normal;font-weight:700;font-stretch:normal;fill:#0b5bb4;fill-opacity:1;font-family:Georgia;-inkscape-font-specification:Georgia Bold" id="tspan2951" x="191.964" y="287.088">i3</tspan></text><text style="font-size:11.90824985999999974px;font-style:normal;font-weight:400;fill:#fff;fill-opacity:1;stroke:none;display:inline;font-family:Bitstream Vera Sans" id="text2943" x="212.135" y="327.171" transform="scale(1.0168712,0.98340872)" xml:space="preserve"><tspan id="tspan2945" x="212.135" y="327.171" style="font-size:18px;font-style:normal;font-variant:normal;font-weight:400;font-stretch:normal;text-align:center;text-anchor:middle;font-family:Georgia;-inkscape-font-specification:Georgia;fill:#fff;fill-opacity:1">improved</tspan><tspan style="font-size:18px;font-style:normal;font-variant:normal;font-weight:400;font-stretch:normal;text-align:center;text-anchor:middle;font-family:Georgia;-inkscape-font-specification:Georgia;fill:#fff;fill-opacity:1" id="tspan3835" x="212.135" y="349.671">tiling wm</tspan></text><rect style="fill:#fff;fill-opacity:1;stroke:none" id="rect4329" width="145.562" height="134.577" x="23.92" y="253.033"/><g id="g3837" transform="matrix(0.93634729,0,0,0.93634729,1.5366196,20.389339)"><rect id="rect2383" width="154.986" height="143.253" x="24.141" y="248.695" style="fill:url(#radialGradient3303);fill-opacity:1;fill-rule:nonzero;stroke:none;display:inline"/><path id="path3221" d="m 24.548726,248.69894 c -0.923802,1.94771 -0.141016,4.60164 -0.382144,6.83186 0.104234,22.28427 0.208466,44.56854 0.312698,66.85282 5.686139,4.86076 13.886347,4.12262 20.925306,5.06603 25.678942,1.59846 51.500522,1.6763 77.097934,-1.13701 16.33402,-1.59469 32.66831,-4.05353 48.43162,-8.54811 4.01303,-1.30316 9.05404,-4.28177 8.19421,-8.97949 0,-20.02869 0,-40.0574 0,-60.0861 -51.52654,0 -103.053082,0 -154.579624,0 z" style="opacity:.09583333;fill:#fff;fill-opacity:1;stroke:none;display:inline"/><g id="g3394" transform="matrix(0.16261542,-0.15792135,0.16329493,0.15726421,31.999803,328.00895)" style="opacity:.5;fill:#000;fill-opacity:1;display:inline;filter:url(#filter3406)"><path id="path3396" d="M 412.75,98.59375 C 396.19379,98.835333 382.96319,112.44354 383.1875,129 c 0,0 -10e-6,87.25107 0,196.3125 0,23.30736 -12.11655,39.13192 -38.21875,53.46875 -26.1022,14.33683 -64.97276,22.875 -103.875,22.875 -38.90224,0 -77.7728,-8.53817 -103.875,-22.875 C 111.11655,364.44442 99,348.61986 99,325.3125 c 0,-54.37333 0.441249,-103.35555 0.65625,-138.875 0.1075,-17.75973 0.177008,-32.11577 0.09375,-42.34375 -0.04163,-5.11399 -0.129499,-9.10767 -0.28125,-12.46875 -0.07588,-1.68054 -0.136902,-3.05581 -0.40625,-5.25 -0.134674,-1.09709 -0.168072,-2.2122 -1,-5.1875 C 97.646536,119.69985 97.275733,117.79087 94.875,113.75 92.474267,109.70913 84.912085,98.999943 69,99 59.653467,98.879464 50.78473,103.12192 45.013008,110.47443 39.241286,117.82694 37.226064,127.44941 39.5625,136.5 c 0.06318,2.03091 0.15684,4.32729 0.1875,8.09375 0.07765,9.5394 0.0133,23.81477 -0.09375,41.5 C 39.442151,221.46421 39,270.62442 39,325.3125 c -10e-7,47.58256 30.913445,84.95437 69.34375,106.0625 38.43031,21.10813 85.6089,30.28125 132.75,30.28125 47.1411,0 94.31969,-9.17312 132.75,-30.28125 38.43031,-21.10813 69.34375,-58.47994 69.34375,-106.0625 -10e-6,-109.06142 0,-196.3125 0,-196.3125 0.10978,-8.10283 -3.06279,-15.9055 -8.79582,-21.63265 -5.73304,-5.72715 -13.53896,-8.891699 -21.64168,-8.7736 l 0,0 z" style="fill:#000;fill-opacity:1;fill-rule:evenodd;stroke:none"/><path id="path3398" d="M 239.5625,99.5 C 223.00629,99.741583 209.77569,113.34979 210,129.90625 L 210,350 c -0.15301,10.81908 5.53126,20.88244 14.87619,26.33663 9.34492,5.45419 20.9027,5.45419 30.24762,0 C 264.46874,370.88244 270.15301,360.81908 270,350 l 0,-220.09375 c 0.10978,-8.10283 -3.06279,-15.9055 -8.79582,-21.63265 -5.73304,-5.72715 -13.53896,-8.891699 -21.64168,-8.7736 l 0,0 z" style="fill:#000;fill-opacity:1;fill-rule:evenodd;stroke:none"/><path id="path3400" d="M 100,40 C 100,56.568542 86.568542,70 70,70 53.431458,70 40,56.568542 40,40 40,23.431458 53.431458,10 70,10 c 16.568542,0 30,13.431458 30,30 z" transform="translate(0,-10)" style="fill:#000;fill-opacity:1;stroke-width:60;stroke-linecap:round;stroke-linejoin:round;stroke-miterlimit:4;stroke-dasharray:none"/><path style="fill:#000;fill-opacity:1;stroke-width:60;stroke-linecap:round;stroke-linejoin:round;stroke-miterlimit:4;stroke-dasharray:none" id="path3402" d="M 100,40 C 100,56.568542 86.568542,70 70,70 53.431458,70 40,56.568542 40,40 40,23.431458 53.431458,10 70,10 c 16.568542,0 30,13.431458 30,30 z" transform="translate(170,-10)"/><path id="path3404" d="M 100,40 C 100,56.568542 86.568542,70 70,70 53.431458,70 40,56.568542 40,40 40,23.431458 53.431458,10 70,10 c 16.568542,0 30,13.431458 30,30 z" transform="translate(345,-10)" style="fill:#000;fill-opacity:1;stroke-width:60;stroke-linecap:round;stroke-linejoin:round;stroke-miterlimit:4;stroke-dasharray:none"/></g><rect style="fill:none;stroke:#000;stroke-width:.47207919;stroke-linecap:round;stroke-linejoin:miter;stroke-miterlimit:4;stroke-opacity:1;stroke-dasharray:none;stroke-dashoffset:0;display:inline" id="rect3244" width="154.986" height="143.253" x="24.141" y="248.695"/><rect id="rect3246" width="154.986" height="143.253" x="24.141" y="248.695" style="fill:none;stroke:#000;stroke-width:.47207919;stroke-linecap:round;stroke-linejoin:miter;stroke-miterlimit:4;stroke-opacity:1;stroke-dasharray:none;stroke-dashoffset:0;display:inline"/><path id="path2929" d="m 91.346794,248.69506 0,143.2533 0,-143.2533 z" style="fill:none;stroke:#000;stroke-width:.47207919;stroke-linecap:round;stroke-linejoin:miter;stroke-miterlimit:4;stroke-opacity:1;stroke-dashoffset:0;display:inline"/><path style="fill:none;stroke:#000;stroke-width:.47207919;stroke-linecap:round;stroke-linejoin:miter;stroke-miterlimit:4;stroke-opacity:1;stroke-dasharray:none;stroke-dashoffset:0;marker:none;visibility:visible;display:inline;overflow:visible;enable-background:accumulate" id="path3254" d="m 91.135721,295.48452 -66.783968,0 66.783968,0 z"/><path id="path3256" d="m 91.135721,344.69467 -66.783968,0 66.783968,0 z" style="fill:none;stroke:#000;stroke-width:.47207919;stroke-linecap:round;stroke-linejoin:miter;stroke-miterlimit:4;stroke-opacity:1;stroke-dasharray:none;stroke-dashoffset:0;marker:none;visibility:visible;display:inline;overflow:visible;enable-background:accumulate"/><path id="path2405" d="m 115.21918,278.33218 c -2.65284,2.65258 -2.58219,6.88205 0.15787,9.45037 0,0 14.24765,13.72146 32.05684,30.87293 3.80597,3.6654 4.4197,8.0675 2.51621,14.44427 -1.90349,6.37677 -6.8302,13.85801 -13.15631,20.0015 -6.3261,6.1435 -14.04129,10.93924 -20.62704,12.80667 -6.58576,1.86742 -11.14017,1.29224 -14.94614,-2.37317 -8.87889,-8.55098 -16.805682,-16.32381 -22.570867,-21.9437 -2.882591,-2.80994 -5.215552,-5.07861 -6.899273,-6.67397 -0.841858,-0.79767 -1.508291,-1.41185 -2.08182,-1.91647 -0.28676,-0.25231 -0.521261,-0.45895 -0.92336,-0.76148 -0.201047,-0.15126 -0.388572,-0.32135 -1.00971,-0.65789 -0.310564,-0.16827 -0.682588,-0.40991 -1.732842,-0.66627 -1.050249,-0.25636 -4.028733,-0.7463 -6.616274,1.76657 -1.539573,1.45705 -2.288993,3.5248 -2.026936,5.59257 0.262055,2.06777 1.505651,3.89928 3.363508,4.95364 0.34191,0.30941 0.732128,0.65576 1.352158,1.24325 1.570361,1.48794 3.890994,3.74311 6.761491,6.54126 5.741001,5.59633 13.69671,13.3973 22.626998,21.99777 7.769995,7.48303 18.899617,8.47839 28.595837,5.72898 9.69621,-2.74941 18.86609,-8.75732 26.53197,-16.20191 7.66587,-7.44459 13.83992,-16.3377 16.64242,-25.72621 2.80251,-9.38852 1.72689,-20.14767 -6.0431,-27.63069 -17.80917,-17.15146 -32.05684,-30.87293 -32.05684,-30.87293 -1.3053,-1.29162 -3.09534,-2.01769 -4.96283,-2.013 -1.8675,0.005 -3.65363,0.73975 -4.95196,2.03791 l 0,0 z" style="opacity:.87000002;color:#000;fill:#fff;fill-opacity:1;fill-rule:evenodd;stroke:none;stroke-width:60;marker:none;visibility:visible;display:inline;overflow:visible;enable-background:accumulate"/><path id="path3179" d="m 87.204209,305.82471 c -2.652845,2.65256 -2.582201,6.88205 0.157868,9.45036 l 35.940193,34.61287 c 1.74182,1.72562 4.30946,2.41055 6.71973,1.79255 2.41027,-0.61802 4.28975,-2.44325 4.91873,-4.77676 0.62899,-2.3335 -0.0899,-4.81377 -1.88154,-6.49106 L 97.119,305.7998 c -1.305296,-1.29163 -3.095344,-2.01769 -4.962836,-2.013 -1.867498,0.005 -3.653612,0.73974 -4.951955,2.03791 l 0,0 z" style="opacity:.87000002;fill:#fff;fill-opacity:1;fill-rule:evenodd;stroke:none;display:inline"/><path id="path3181" d="M 100,40 C 100,56.568542 86.568542,70 70,70 53.431458,70 40,56.568542 40,40 40,23.431458 53.431458,10 70,10 c 16.568542,0 30,13.431458 30,30 z" transform="matrix(0.16261542,-0.15792135,0.16329493,0.15726421,30.366855,326.43631)" style="opacity:.87000002;color:#000;fill:#fff;fill-opacity:1;fill-rule:evenodd;stroke:none;stroke-width:124.98213196;marker:none;visibility:visible;display:inline;overflow:visible;enable-background:accumulate"/><path style="opacity:.87000002;color:#000;fill:#fff;fill-opacity:1;fill-rule:evenodd;stroke:none;stroke-width:124.98213196;marker:none;visibility:visible;display:inline;overflow:visible;enable-background:accumulate" id="path3183" d="M 100,40 C 100,56.568542 86.568542,70 70,70 53.431458,70 40,56.568542 40,40 40,23.431458 53.431458,10 70,10 c 16.568542,0 30,13.431458 30,30 z" transform="matrix(0.16261542,-0.15792135,0.16329493,0.15726421,58.011475,299.58968)"/><path id="path3185" d="M 100,40 C 100,56.568542 86.568542,70 70,70 53.431458,70 40,56.568542 40,40 40,23.431458 53.431458,10 70,10 c 16.568542,0 30,13.431458 30,30 z" transform="matrix(0.16261542,-0.15792135,0.16329493,0.15726421,86.469174,271.95344)" style="opacity:.87000002;color:#000;fill:#fff;fill-opacity:1;fill-rule:evenodd;stroke:none;stroke-width:124.98213196;marker:none;visibility:visible;display:inline;overflow:visible;enable-background:accumulate"/></g><text style="font-size:13.28640651999999989px;font-style:normal;font-variant:normal;font-weight:400;font-stretch:normal;text-align:center;line-height:125%;letter-spacing:0;word-spacing:0;text-anchor:middle;fill:#fff;fill-opacity:1;stroke:none;font-family:Trebuchet MS;-inkscape-font-specification:Trebuchet MS" id="text3067" x="215.769" y="383.708" xml:space="preserve"><tspan id="tspan3069" x="215.769" y="383.708" style="font-size:18px;font-style:normal;font-variant:normal;font-weight:400;font-stretch:normal;font-family:Georgia;-inkscape-font-specification:Georgia;fill:#fff;fill-opacity:1">i3wm.org</tspan></text></g></svg>